<?xml version="1.0" encoding="utf-8"?>
<COLLADA xmlns="http://www.collada.org/2005/11/COLLADASchema" version="1.4.1" xmlns:xsi="http://www.w3.org/2001/XMLSchema-instance">
  <asset>
    <contributor>
      <author>Blender User</author>
      <authoring_tool>Blender 3.0.1</authoring_tool>
    </contributor>
    <created>2024-06-16T18:31:46</created>
    <modified>2024-06-16T18:31:46</modified>
    <unit name="meter" meter="1"/>
    <up_axis>Z_UP</up_axis>
  </asset>
  <library_effects>
    <effect id="marker-effect">
      <profile_COMMON>
        <newparam sid="tag36_11_00015_mod_png-surface">
          <surface type="2D">
            <init_from>tag36_11_00015_mod_png</init_from>
          </surface>
        </newparam>
        <newparam sid="tag36_11_00015_mod_png-sampler">
          <sampler2D>
            <source>tag36_11_00015_mod_png-surface</source>
          </sampler2D>
        </newparam>
        <technique sid="common">
          <lambert>
            <emission>
              <color sid="emission">0 0 0 1</color>
            </emission>
            <diffuse>
              <texture texture="tag36_11_00015_mod_png-sampler" texcoord="UVMap"/>
            </diffuse>
            <index_of_refraction>
              <float sid="ior">1.45</float>
            </index_of_refraction>
          </lambert>
        </technique>
      </profile_COMMON>
    </effect>
  </library_effects>
  <library_images>
    <image id="tag36_11_00015_mod_png" name="tag36_11_00015_mod_png">
      <init_from>tag36_11_00015_mod.png</init_from>
    </image>
  </library_images>
  <library_materials>
    <material id="marker-material" name="marker">
      <instance_effect url="#marker-effect"/>
    </material>
  </library_materials>
  <library_geometries>
    <geometry id="planar_end_eff_visual-mesh" name="planar_end_eff_visual">
      <mesh>
        <source id="planar_end_eff_visual-mesh-positions">
          <float_array id="planar_end_eff_visual-mesh-positions-array" count="120">-0.1 -0.1 0.00999999 -0.1 -0.1 0.01600003 -0.1 0.1 0.01600003 -0.1 0.1 0.00999999 0.1 0.1 0.01600003 0.1 0.1 0.00999999 0.1 -0.1 0.01600003 0.1 -0.1 0.00999999 0 0.02999997 0 0 0.02999997 0.00999999 0.01148045 0.02771627 0.00999999 0.01148045 0.02771627 0 0.02121317 0.02121317 0.00999999 0.02121317 0.02121317 0 0.02771627 0.01148045 0.00999999 0.02771627 0.01148045 0 0.02999997 0 0.00999999 0.02999997 0 0 0.02771627 -0.01148051 0.00999999 0.02771627 -0.01148051 0 0.02121317 -0.02121317 0.00999999 0.02121317 -0.02121317 0 0.01148045 -0.02771627 0.00999999 0.01148045 -0.02771627 0 0 -0.02999997 0.00999999 0 -0.02999997 0 -0.01148045 -0.02771633 0.00999999 -0.01148045 -0.02771633 0 -0.02121317 -0.02121317 0.00999999 -0.02121317 -0.02121317 0 -0.02771627 -0.01148051 0.00999999 -0.02771627 -0.01148051 0 -0.02999997 0 0.00999999 -0.02999997 0 0 -0.02771627 0.01148045 0.00999999 -0.02771627 0.01148045 0 -0.02121317 0.02121317 0.00999999 -0.02121317 0.02121317 0 -0.01148045 0.02771627 0.00999999 -0.01148045 0.02771627 0</float_array>
          <technique_common>
            <accessor source="#planar_end_eff_visual-mesh-positions-array" count="40" stride="3">
              <param name="X" type="float"/>
              <param name="Y" type="float"/>
              <param name="Z" type="float"/>
            </accessor>
          </technique_common>
        </source>
        <source id="planar_end_eff_visual-mesh-normals">
          <float_array id="planar_end_eff_visual-mesh-normals-array" count="90">-1 0 0 0 1 0 1 0 0 0 -1 0 0 0 -1 0 0 1 0.1950933 0.9807847 0 0.555568 0.8314712 0 0.5555682 0.8314711 0 0.8314712 0.5555681 0 0.9807847 0.1950933 0 0.980785 -0.1950923 0 0.8314695 -0.5555704 0 0.5555682 -0.8314711 0 0.555568 -0.8314712 0 0.1950933 -0.9807847 0 -0.1950884 -0.9807857 0 -0.5555715 -0.8314689 0 -0.5555717 -0.8314687 0 -0.8314695 -0.5555704 0 -0.980785 -0.1950923 0 -0.9807847 0.1950933 0 -0.8314712 0.5555681 0 -2.77533e-7 0 1 2.77533e-7 0 1 2.7753e-7 0 1 -2.7753e-7 0 1 -0.5555682 0.8314711 0 -0.555568 0.8314712 0 -0.1950933 0.9807847 0</float_array>
          <technique_common>
            <accessor source="#planar_end_eff_visual-mesh-normals-array" count="30" stride="3">
              <param name="X" type="float"/>
              <param name="Y" type="float"/>
              <param name="Z" type="float"/>
            </accessor>
          </technique_common>
        </source>
        <source id="planar_end_eff_visual-mesh-map-0">
          <float_array id="planar_end_eff_visual-mesh-map-0-array" count="432">0 0 0 0 0 0 0 0 0 0 0 0 0 0 0 0 0 0 0 0 0 0 0 0 0 0 0 0 0 0 0 0 0 0 0 0 0 0 0 0 0 0 0 0 0 0 0 0 0 0 0 0 0 0 0 0 0 0 0 0 0.2737398 -0.02626025 1.32626 -0.02626001 1.32626 1.02626 1.32626 1.02626 0.2737398 1.02626 0.2737398 -0.02626025 0 0 0 0 0 0 0 0 0 0 0 0 0 0 0 0 0 0 0 0 0 0 0 0 0 0 0 0 0 0 0 0 0 0 0 0 0 0 0 0 0 0 0 0 0 0 0 0 0 0 0 0 0 0 0 0 0 0 0 0 0 0 0 0 0 0 0 0 0 0 0 0 0 0 0 0 0 0 0 0 0 0 0 0 0 0 0 0 0 0 0 0 0 0 0 0 0 0 0 0 0 0 0 0 0 0 0 0 0 0 0 0 0 0 0 0 0 0 0 0 0 0 0 0 0 0 0 0 0 0 0 0 0 0 0 0 0 0 0 0 0 0 0 0 0 0 0 0 0 0 0 0 0 0 0 0 0 0 0 0 0 0 0 0 0 0 0 0 0 0 0 0 0 0 0 0 0 0 0 0 0 0 0 0 0 0 0 0 0 0 0 0 0 0 0 0 0 0 0 0 0 0 0 0 0 0 0 0 0 0 0 0 0 0 0 0 0 0 0 0 0 0 0 0 0 0 0 0 0 0 0 0 0 0 0 0 0 0 0 0 0 0 0 0 0 0 0 0 0 0 0 0 0 0 0 0 0 0 0 0 0 0 0 0 0 0 0 0 0 0 0 0 0 0 0 0 0 0 0 0 0 0 0 0 0 0 0 0 0 0 0 0 0 0 0 0 0 0 0 0 0 0 0 0 0 0 0 0 0 0 0 0 0 0 0 0 0 0 0 0 0 0 0 0 0 0 0 0 0 0 0 0 0 0 0 0 0 0 0 0 0 0 0 0 0 0 0 0 0 0 0 0 0 0 0 0 0 0 0 0</float_array>
          <technique_common>
            <accessor source="#planar_end_eff_visual-mesh-map-0-array" count="216" stride="2">
              <param name="S" type="float"/>
              <param name="T" type="float"/>
            </accessor>
          </technique_common>
        </source>
        <vertices id="planar_end_eff_visual-mesh-vertices">
          <input semantic="POSITION" source="#planar_end_eff_visual-mesh-positions"/>
        </vertices>
        <triangles material="marker-material" count="72">
          <input semantic="VERTEX" source="#planar_end_eff_visual-mesh-vertices" offset="0"/>
          <input semantic="NORMAL" source="#planar_end_eff_visual-mesh-normals" offset="1"/>
          <input semantic="TEXCOORD" source="#planar_end_eff_visual-mesh-map-0" offset="2" set="0"/>
          <p>0 0 0 1 0 1 2 0 2 2 0 3 3 0 4 0 0 5 3 1 6 2 1 7 4 1 8 4 1 9 5 1 10 3 1 11 5 2 12 4 2 13 6 2 14 6 2 15 7 2 16 5 2 17 1 3 18 0 3 19 7 3 20 7 3 21 6 3 22 1 3 23 7 4 24 0 4 25 3 4 26 3 4 27 5 4 28 7 4 29 4 5 30 2 5 31 1 5 32 1 5 33 6 5 34 4 5 35 8 6 36 9 6 37 10 6 38 10 6 39 11 6 40 8 6 41 11 7 42 10 7 43 12 7 44 12 8 45 13 8 46 11 8 47 13 9 48 12 9 49 14 9 50 14 9 51 15 9 52 13 9 53 15 10 54 14 10 55 16 10 56 16 10 57 17 10 58 15 10 59 17 11 60 16 11 61 18 11 62 18 11 63 19 11 64 17 11 65 19 12 66 18 12 67 20 12 68 20 12 69 21 12 70 19 12 71 21 13 72 20 13 73 22 13 74 22 14 75 23 14 76 21 14 77 23 15 78 22 15 79 24 15 80 24 15 81 25 15 82 23 15 83 25 16 84 24 16 85 26 16 86 26 16 87 27 16 88 25 16 89 27 17 90 26 17 91 28 17 92 28 18 93 29 18 94 27 18 95 29 19 96 28 19 97 30 19 98 30 19 99 31 19 100 29 19 101 31 20 102 30 20 103 32 20 104 32 20 105 33 20 106 31 20 107 33 21 108 32 21 109 34 21 110 34 21 111 35 21 112 33 21 113 35 22 114 34 22 115 36 22 116 36 22 117 37 22 118 35 22 119 12 23 120 10 23 121 9 23 122 9 24 123 38 24 124 36 24 125 36 5 126 34 5 127 32 5 128 32 25 129 30 25 130 28 25 131 28 5 132 26 5 133 24 5 134 24 23 135 22 23 136 20 23 137 20 26 138 18 26 139 16 26 140 16 5 141 14 5 142 12 5 143 12 5 144 9 5 145 36 5 146 36 5 147 32 5 148 28 5 149 28 5 150 24 5 151 20 5 152 20 5 153 16 5 154 12 5 155 12 5 156 36 5 157 28 5 158 28 5 159 20 5 160 12 5 161 37 27 162 36 27 163 38 27 164 38 28 165 39 28 166 37 28 167 39 29 168 38 29 169 9 29 170 9 29 171 8 29 172 39 29 173 39 4 174 8 4 175 11 4 176 11 4 177 13 4 178 15 4 179 15 4 180 17 4 181 19 4 182 19 4 183 21 4 184 23 4 185 23 4 186 25 4 187 27 4 188 27 4 189 29 4 190 31 4 191 31 4 192 33 4 193 35 4 194 35 4 195 37 4 196 39 4 197 39 4 198 11 4 199 15 4 200 15 4 201 19 4 202 23 4 203 23 4 204 27 4 205 31 4 206 31 4 207 35 4 208 39 4 209 39 4 210 15 4 211 23 4 212 23 4 213 31 4 214 39 4 215</p>
        </triangles>
      </mesh>
    </geometry>
  </library_geometries>
  <library_visual_scenes>
    <visual_scene id="Scene" name="Scene">
      <node id="planar_end_eff_visual" name="planar_end_eff_visual" type="NODE">
        <matrix sid="transform">1 0 0 0 0 1 0 0 0 0 1 0 0 0 0 1</matrix>
        <instance_geometry url="#planar_end_eff_visual-mesh" name="planar_end_eff_visual">
          <bind_material>
            <technique_common>
              <instance_material symbol="marker-material" target="#marker-material">
                <bind_vertex_input semantic="UVMap" input_semantic="TEXCOORD" input_set="0"/>
              </instance_material>
            </technique_common>
          </bind_material>
        </instance_geometry>
      </node>
    </visual_scene>
  </library_visual_scenes>
  <scene>
    <instance_visual_scene url="#Scene"/>
  </scene>
</COLLADA>