<?xml version="1.0" encoding="utf-8"?>
<COLLADA xmlns="http://www.collada.org/2005/11/COLLADASchema" version="1.4.1" xmlns:xsi="http://www.w3.org/2001/XMLSchema-instance">
  <asset>
    <contributor>
      <author>Blender User</author>
      <authoring_tool>Blender 3.0.1</authoring_tool>
    </contributor>
    <created>2024-06-09T11:54:44</created>
    <modified>2024-06-09T11:54:44</modified>
    <unit name="meter" meter="1"/>
    <up_axis>Z_UP</up_axis>
  </asset>
  <library_effects>
    <effect id="cube-effect">
      <profile_COMMON>
        <newparam sid="tag36_11_00001_png-surface">
          <surface type="2D">
            <init_from>tag36_11_00001_png</init_from>
          </surface>
        </newparam>
        <newparam sid="tag36_11_00001_png-sampler">
          <sampler2D>
            <source>tag36_11_00001_png-surface</source>
          </sampler2D>
        </newparam>
        <technique sid="common">
          <lambert>
            <emission>
              <color sid="emission">0 0 0 1</color>
            </emission>
            <diffuse>
              <texture texture="tag36_11_00001_png-sampler" texcoord="Cube-mesh-map-0"/>
            </diffuse>
            <index_of_refraction>
              <float sid="ior">1.45</float>
            </index_of_refraction>
          </lambert>
        </technique>
      </profile_COMMON>
    </effect>
    <effect id="Material_001-effect">
      <profile_COMMON>
        <technique sid="common">
          <lambert>
            <emission>
              <color sid="emission">0 0 0 1</color>
            </emission>
            <diffuse>
              <color sid="diffuse">0 0.8017882 0.04753513 1</color>
            </diffuse>
            <index_of_refraction>
              <float sid="ior">1.45</float>
            </index_of_refraction>
          </lambert>
        </technique>
      </profile_COMMON>
    </effect>
  </library_effects>
  <library_images>
    <image id="tag36_11_00001_png" name="tag36_11_00001_png">
      <init_from>tag36_11_00001.png</init_from>
    </image>
  </library_images>
  <library_materials>
    <material id="cube-material" name="cube">
      <instance_effect url="#cube-effect"/>
    </material>
    <material id="Material_001-material" name="Material.001">
      <instance_effect url="#Material_001-effect"/>
    </material>
  </library_materials>
  <library_geometries>
    <geometry id="Cube_001-mesh" name="Cube.001">
      <mesh>
        <source id="Cube_001-mesh-positions">
          <float_array id="Cube_001-mesh-positions-array" count="216">1 1 1 1 1 -1 1 -1 1 1 -1 -1 -1 1 1 -1 1 -1 -1 -1 1 -1 -1 -1 1.00772 2 -1.205496 -9.49228 2 -1.205496 1.00772 1.96157 -0.8153152 -9.49228 1.96157 -0.8153156 1.00772 1.847759 -0.4401289 -9.49228 1.847759 -0.4401294 1.00772 1.662939 -0.09435534 -9.49228 1.662939 -0.09435582 1.00772 1.414214 0.2087177 -9.49228 1.414214 0.2087172 1.00772 1.11114 0.4574434 -9.49228 1.11114 0.4574429 1.00772 0.7653669 0.6422632 -9.49228 0.7653669 0.6422627 1.00772 0.3901807 0.7560747 -9.49228 0.3901807 0.7560742 1.00772 0 0.7945042 -9.49228 0 0.7945037 1.00772 -0.3901807 0.7560747 -9.49228 -0.3901807 0.7560742 1.00772 -0.7653668 0.6422633 -9.49228 -0.7653668 0.6422628 1.00772 -1.11114 0.4574435 -9.49228 -1.11114 0.457443 1.00772 -1.414214 0.2087177 -9.49228 -1.414214 0.2087172 1.00772 -1.662939 -0.09435546 -9.49228 -1.662939 -0.09435594 1.00772 -1.847759 -0.4401289 -9.49228 -1.847759 -0.4401293 1.00772 -1.961571 -0.8153153 -9.49228 -1.961571 -0.8153157 1.00772 -2 -1.205496 -9.49228 -2 -1.205496 1.00772 -1.961571 -1.595676 -9.49228 -1.961571 -1.595677 1.00772 -1.847759 -1.970863 -9.49228 -1.847759 -1.970863 1.00772 -1.662939 -2.316637 -9.49228 -1.662939 -2.316637 1.00772 -1.414214 -2.619709 -9.49228 -1.414214 -2.61971 1.00772 -1.111141 -2.868435 -9.49228 -1.111141 -2.868435 1.00772 -0.7653672 -3.053255 -9.49228 -0.7653672 -3.053255 1.00772 -0.3901808 -3.167066 -9.49228 -0.3901808 -3.167067 1.00772 0 -3.205496 -9.49228 0 -3.205496 1.00772 0.3901808 -3.167066 -9.49228 0.3901808 -3.167067 1.00772 0.7653672 -3.053255 -9.49228 0.7653672 -3.053255 1.00772 1.11114 -2.868435 -9.49228 1.11114 -2.868436 1.00772 1.414213 -2.619709 -9.49228 1.414213 -2.61971 1.00772 1.662939 -2.316637 -9.49228 1.662939 -2.316637 1.00772 1.847759 -1.970863 -9.49228 1.847759 -1.970863 1.00772 1.961571 -1.595676 -9.49228 1.961571 -1.595677</float_array>
          <technique_common>
            <accessor source="#Cube_001-mesh-positions-array" count="72" stride="3">
              <param name="X" type="float"/>
              <param name="Y" type="float"/>
              <param name="Z" type="float"/>
            </accessor>
          </technique_common>
        </source>
        <source id="Cube_001-mesh-normals">
          <float_array id="Cube_001-mesh-normals-array" count="285">0 0 1 0 -1 0 -1 0 0 0 0 -1 1 0 0 0 1 0 0 0.9951848 0.09801667 0 0.9569403 0.290285 0 0.8819212 0.4713969 0 0.7730106 0.6343932 0 0.6343932 0.7730106 0 0.4713966 0.8819213 0 0.2902848 0.9569404 0 0.09801721 0.9951848 0 -0.09801727 0.9951847 0 -0.2902845 0.9569404 0 -0.4713966 0.8819213 0 -0.6343934 0.7730105 0 -0.7730107 0.634393 0 -0.8819215 0.4713964 0 -0.9569406 0.290284 0 -0.9951847 0.09801757 0 -0.9951848 -0.09801673 0 -0.9569403 -0.2902851 0 -0.8819214 -0.4713965 0 -0.7730103 -0.6343937 0 -0.6343934 -0.7730104 0 -0.4713969 -0.8819212 0 -0.2902846 -0.9569405 0 -0.09801727 -0.9951848 0 0.09801721 -0.9951848 0 0.290285 -0.9569402 0 0.4713963 -0.8819215 0 0.6343935 -0.7730102 0 0.7730103 -0.6343936 0 0.8819214 -0.4713965 -1 -2.38419e-7 0 0 0.9569403 -0.2902851 0 0.9951848 -0.09801673 1 0 0 0 0.9951847 0.09801757 0 0.9569405 0.2902843 0 0.7730106 0.6343932 0 0.6343934 0.7730104 0 0.4713966 0.8819213 0 0.2902847 0.9569404 0 -0.09801727 0.9951847 0 -0.2902844 0.9569404 0 -0.4713966 0.8819213 0 -0.6343934 0.7730104 0 -0.7730103 0.6343936 0 -0.8819211 0.4713971 0 -0.9569402 0.2902851 0 -0.9951848 0.09801661 0 -0.9951847 -0.09801769 0 -0.9569405 -0.2902842 0 -0.8819215 -0.4713966 0 -0.7730104 -0.6343933 0 -0.6343939 -0.7730101 0 -0.4713967 -0.8819213 0 -0.2902846 -0.9569404 0 -0.09801721 -0.9951848 0 0.09801727 -0.9951848 0 0.2902852 -0.9569402 0 0.4713962 -0.8819215 0 0.77301 -0.6343939 0 0.8819215 -0.4713966 -1 1.07379e-5 0 -1 1.59004e-5 0 -1 -1.59005e-5 0 -1 -7.95023e-6 0 -1 -1.36853e-6 0 -1 5.74811e-6 0 -1 1.55543e-6 0 -1 -4.09232e-6 0 -1 4.09231e-6 0 -1 2.30237e-6 0 -1 -4.76837e-7 0 0 0.9569405 -0.2902842 0 0.9951847 -0.09801763 1 -1.98756e-6 0 1 3.97512e-6 7.3468e-7 1 4.96891e-7 0 1 -9.9378e-7 0 1 -1.36853e-6 5.04042e-7 1 1.98756e-6 0 1 -2.68447e-6 0 1 -1.34223e-6 0 1 1.98756e-6 0 1 5.1154e-7 0 1 0 0 1 0 0 1 0 0 1 0 0 1 0 0</float_array>
          <technique_common>
            <accessor source="#Cube_001-mesh-normals-array" count="95" stride="3">
              <param name="X" type="float"/>
              <param name="Y" type="float"/>
              <param name="Z" type="float"/>
            </accessor>
          </technique_common>
        </source>
        <source id="Cube_001-mesh-map-0">
          <float_array id="Cube_001-mesh-map-0-array" count="816">1.000181 7.7945e-4 0.002740263 0.9982206 0.002740263 7.7945e-4 0.625 0.75 0.375 1 0.375 0.75 0.625 0 0.375 0.25 0.375 0 0.375 0.5 0.125 0.75 0.125 0.5 0.625 0.5 0.375 0.75 0.375 0.5 0.625 0.25 0.375 0.5 0.375 0.25 1.000181 7.7945e-4 1.000181 0.9982206 0.002740263 0.9982206 0.625 0.75 0.625 1 0.375 1 0.625 0 0.625 0.25 0.375 0.25 0.375 0.5 0.375 0.75 0.125 0.75 0.625 0.5 0.625 0.75 0.375 0.75 0.625 0.25 0.625 0.5 0.375 0.5 0 0 0 0 0 0 0 0 0 0 0 0 0 0 0 0 0 0 0 0 0 0 0 0 0 0 0 0 0 0 0 0 0 0 0 0 0 0 0 0 0 0 0 0 0 0 0 0 0 0 0 0 0 0 0 0 0 0 0 0 0 0 0 0 0 0 0 0 0 0 0 0 0 0 0 0 0 0 0 0 0 0 0 0 0 0 0 0 0 0 0 0 0 0 0 0 0 0 0 0 0 0 0 0 0 0 0 0 0 0 0 0 0 0 0 0 0 0 0 0 0 0 0 0 0 0 0 0 0 0 0 0 0 0 0 0 0 0 0 0 0 0 0 0 0 0 0 0 0 0 0 0 0 0 0 0 0 0 0 0 0 0 0 0 0 0 0 0 0 0 0 0 0 0 0 0 0 0 0 0 0 0 0 0 0 0 0 0 0 0 0 0 0 0 0 0 0 0 0 0 0 0 0 0 0 0 0 0 0 0 0 0 0 0 0 0 0 0 0 0 0 0 0 0 0 0 0 0 0 0 0 0 0 0 0 0 0 0 0 0 0 0 0 0 0 0 0 0 0 0 0 0 0 0 0 0 0 0 0 0 0 0 0 0 0 0 0 0 0 0 0 0 0 0 0 0 0 0 0 0 0 0 0 0 0 0 0 0 0 0 0 0 0 0 0 0 0 0 0 0 0 0 0 0 0 0 0 0 0 0 0 0 0 0 0 0 0 0 0 0 0 0 0 0 0 0 0 0 0 0 0 0 0 0 0 0 0 0 0 0 0 0 0 0 0 0 0 0 0 0 0 0 0 0 0 0 0 0 0 0 0 0 0 0 0 0 0 0 0 0 0 0 0 0 0 0 0 0 0 0 0 0 0 0 0 0 0 0 0 0 0 0 0 0 0 0 0 0 0 0 0 0 0 0 0 0 0 0 0 0 0 0 0 0 0 0 0 0 0 0 0 0 0 0 0 0 0 0 0 0 0 0 0 0 0 0 0 0 0 0 0 0 0 0 0 0 0 0 0 0 0 0 0 0 0 0 0 0 0 0 0 0 0 0 0 0 0 0 0 0 0 0 0 0 0 0 0 0 0 0 0 0 0 0 0 0 0 0 0 0 0 0 0 0 0 0 0 0 0 0 0 0 0 0 0 0 0 0 0 0 0 0 0 0 0 0 0 0 0 0 0 0 0 0 0 0 0 0 0 0 0 0 0 0 0 0 0 0 0 0 0 0 0 0 0 0 0 0 0 0 0 0 0 0 0 0 0 0 0 0 0 0 0 0 0 0 0 0 0 0 0 0 0 0 0 0 0 0 0 0 0 0 0 0 0 0 0 0 0 0 0 0 0 0 0 0 0 0 0 0 0 0 0 0 0 0 0 0 0 0 0 0 0 0 0 0 0 0 0 0 0 0 0 0 0 0 0 0 0 0 0 0 0 0 0 0 0 0 0 0 0 0 0 0 0 0 0 0 0 0 0 0 0 0 0 0 0 0 0 0 0 0 0 0 0 0 0 0 0 0 0 0 0 0 0 0 0 0 0 0 0 0 0 0 0 0 0 0 0 0 0 0 0 0 0 0 0 0 0 0 0 0 0 0 0 0 0 0 0 0 0 0 0 0 0 0 0 0 0 0 0 0 0 0 0 0 0 0 0 0 0 0 0 0 0 0 0 0 0 0 0 0 0 0</float_array>
          <technique_common>
            <accessor source="#Cube_001-mesh-map-0-array" count="408" stride="2">
              <param name="S" type="float"/>
              <param name="T" type="float"/>
            </accessor>
          </technique_common>
        </source>
        <source id="Cube_001-mesh-map-1">
          <float_array id="Cube_001-mesh-map-1-array" count="816">0 0 0 0 0 0 0 0 0 0 0 0 0 0 0 0 0 0 0 0 0 0 0 0 0 0 0 0 0 0 0 0 0 0 0 0 0 0 0 0 0 0 0 0 0 0 0 0 0 0 0 0 0 0 0 0 0 0 0 0 0 0 0 0 0 0 0 0 0 0 0 0 1 0.5 0.96875 1 0.96875 0.5 0.96875 1 0.9375 0.5 0.96875 0.5 0.9375 1 0.90625 0.5 0.9375 0.5 0.90625 1 0.875 0.5 0.90625 0.5 0.875 1 0.84375 0.5 0.875 0.5 0.84375 1 0.8125 0.5 0.84375 0.5 0.8125 1 0.78125 0.5 0.8125 0.5 0.78125 1 0.75 0.5 0.78125 0.5 0.75 1 0.71875 0.5 0.75 0.5 0.71875 1 0.6875 0.5 0.71875 0.5 0.6875 1 0.65625 0.5 0.6875 0.5 0.65625 1 0.625 0.5 0.65625 0.5 0.625 1 0.59375 0.5 0.625 0.5 0.59375 1 0.5625 0.5 0.59375 0.5 0.5625 1 0.53125 0.5 0.5625 0.5 0.53125 1 0.5 0.5 0.53125 0.5 0.5 1 0.46875 0.5 0.5 0.5 0.46875 1 0.4375 0.5 0.46875 0.5 0.4375 1 0.40625 0.5 0.4375 0.5 0.40625 1 0.375 0.5 0.40625 0.5 0.375 1 0.34375 0.5 0.375 0.5 0.34375 1 0.3125 0.5 0.34375 0.5 0.3125 1 0.28125 0.5 0.3125 0.5 0.28125 1 0.25 0.5 0.28125 0.5 0.25 1 0.21875 0.5 0.25 0.5 0.21875 1 0.1875 0.5 0.21875 0.5 0.1875 1 0.15625 0.5 0.1875 0.5 0.15625 1 0.125 0.5 0.15625 0.5 0.125 1 0.09375 0.5 0.125 0.5 0.09375 1 0.0625 0.5 0.09375 0.5 0.1581559 0.02826887 0.4717311 0.1581559 0.341844 0.4717311 0.0625 1 0.03125 0.5 0.0625 0.5 0.03125 0.5 0 1 0 0.5 0.9853885 0.2968217 0.7968217 0.01461148 0.5146116 0.2031783 1 0.5 1 1 0.96875 1 0.96875 1 0.9375 1 0.9375 0.5 0.9375 1 0.90625 1 0.90625 0.5 0.90625 1 0.875 1 0.875 0.5 0.875 1 0.84375 1 0.84375 0.5 0.84375 1 0.8125 1 0.8125 0.5 0.8125 1 0.78125 1 0.78125 0.5 0.78125 1 0.75 1 0.75 0.5 0.75 1 0.71875 1 0.71875 0.5 0.71875 1 0.6875 1 0.6875 0.5 0.6875 1 0.65625 1 0.65625 0.5 0.65625 1 0.625 1 0.625 0.5 0.625 1 0.59375 1 0.59375 0.5 0.59375 1 0.5625 1 0.5625 0.5 0.5625 1 0.53125 1 0.53125 0.5 0.53125 1 0.5 1 0.5 0.5 0.5 1 0.46875 1 0.46875 0.5 0.46875 1 0.4375 1 0.4375 0.5 0.4375 1 0.40625 1 0.40625 0.5 0.40625 1 0.375 1 0.375 0.5 0.375 1 0.34375 1 0.34375 0.5 0.34375 1 0.3125 1 0.3125 0.5 0.3125 1 0.28125 1 0.28125 0.5 0.28125 1 0.25 1 0.25 0.5 0.25 1 0.21875 1 0.21875 0.5 0.21875 1 0.1875 1 0.1875 0.5 0.1875 1 0.15625 1 0.15625 0.5 0.15625 1 0.125 1 0.125 0.5 0.125 1 0.09375 1 0.09375 0.5 0.09375 1 0.0625 1 0.0625 0.5 0.341844 0.4717311 0.2968217 0.4853885 0.1581559 0.4717311 0.2968217 0.4853885 0.25 0.49 0.1581559 0.4717311 0.25 0.49 0.2031783 0.4853885 0.1581559 0.4717311 0.1581559 0.4717311 0.1166631 0.4495527 0.08029431 0.4197056 0.08029431 0.4197056 0.05044722 0.3833368 0.02826893 0.341844 0.02826893 0.341844 0.01461154 0.2968217 0.00999999 0.25 0.00999999 0.25 0.01461154 0.2031783 0.02826887 0.1581559 0.02826887 0.1581559 0.05044728 0.116663 0.08029437 0.08029437 0.08029437 0.08029437 0.1166631 0.05044728 0.1581559 0.02826887 0.1581559 0.02826887 0.2031783 0.01461148 0.25 0.00999999 0.25 0.00999999 0.2968217 0.01461148 0.341844 0.02826887 0.341844 0.02826887 0.3833369 0.05044728 0.4197056 0.08029437 0.4197056 0.08029437 0.4495527 0.1166631 0.4717311 0.1581559 0.4717311 0.1581559 0.4853885 0.2031783 0.4717311 0.341844 0.4853885 0.2031783 0.49 0.25 0.4717311 0.341844 0.49 0.25 0.4853885 0.2968217 0.4717311 0.341844 0.4717311 0.341844 0.4495527 0.3833369 0.4197056 0.4197056 0.4197056 0.4197056 0.3833369 0.4495527 0.341844 0.4717311 0.1581559 0.4717311 0.08029431 0.4197056 0.341844 0.4717311 0.08029431 0.4197056 0.02826893 0.341844 0.341844 0.4717311 0.02826893 0.341844 0.00999999 0.25 0.1581559 0.02826887 0.00999999 0.25 0.02826887 0.1581559 0.1581559 0.02826887 0.02826887 0.1581559 0.08029437 0.08029437 0.1581559 0.02826887 0.1581559 0.02826887 0.25 0.00999999 0.341844 0.02826887 0.341844 0.02826887 0.4197056 0.08029437 0.4717311 0.1581559 0.4717311 0.341844 0.4197056 0.4197056 0.341844 0.4717311 0.1581559 0.02826887 0.341844 0.02826887 0.4717311 0.1581559 0.4717311 0.1581559 0.4717311 0.341844 0.341844 0.4717311 0.341844 0.4717311 0.02826893 0.341844 0.1581559 0.02826887 0.0625 1 0.03125 1 0.03125 0.5 0.03125 0.5 0.03125 1 0 1 0.7031784 0.4853885 0.75 0.49 0.7968217 0.4853885 0.7968217 0.4853885 0.841844 0.4717311 0.8833369 0.4495527 0.8833369 0.4495527 0.9197056 0.4197056 0.9495527 0.3833369 0.9495527 0.3833369 0.9717311 0.341844 0.9853885 0.2968217 0.9853885 0.2968217 0.99 0.25 0.9853885 0.2031783 0.9853885 0.2031783 0.9717311 0.1581559 0.9495527 0.1166631 0.9495527 0.1166631 0.9197056 0.08029437 0.8833369 0.05044728 0.8833369 0.05044728 0.841844 0.02826887 0.9495527 0.1166631 0.841844 0.02826887 0.7968217 0.01461148 0.9495527 0.1166631 0.7968217 0.01461148 0.75 0.00999999 0.7031784 0.01461148 0.7031784 0.01461148 0.658156 0.02826887 0.7968217 0.01461148 0.658156 0.02826887 0.6166631 0.05044728 0.7968217 0.01461148 0.6166631 0.05044728 0.5802944 0.08029437 0.5504474 0.116663 0.5504474 0.116663 0.5282689 0.1581559 0.6166631 0.05044728 0.5282689 0.1581559 0.5146116 0.2031783 0.6166631 0.05044728 0.5146116 0.2031783 0.51 0.25 0.5146116 0.2968217 0.5146116 0.2968217 0.5282689 0.341844 0.5146116 0.2031783 0.5282689 0.341844 0.5504473 0.3833368 0.5146116 0.2031783 0.5504473 0.3833368 0.5802944 0.4197056 0.7031784 0.4853885 0.5802944 0.4197056 0.6166631 0.4495527 0.7031784 0.4853885 0.6166631 0.4495527 0.658156 0.4717311 0.7031784 0.4853885 0.7031784 0.4853885 0.7968217 0.4853885 0.8833369 0.4495527 0.8833369 0.4495527 0.9495527 0.3833369 0.7031784 0.4853885 0.9495527 0.3833369 0.9853885 0.2968217 0.7031784 0.4853885 0.9853885 0.2968217 0.9853885 0.2031783 0.9495527 0.1166631 0.9853885 0.2968217 0.9495527 0.1166631 0.7968217 0.01461148 0.7968217 0.01461148 0.6166631 0.05044728 0.5146116 0.2031783 0.5146116 0.2031783 0.5504473 0.3833368 0.7031784 0.4853885 0.7031784 0.4853885 0.9853885 0.2968217 0.5146116 0.2031783</float_array>
          <technique_common>
            <accessor source="#Cube_001-mesh-map-1-array" count="408" stride="2">
              <param name="S" type="float"/>
              <param name="T" type="float"/>
            </accessor>
          </technique_common>
        </source>
        <vertices id="Cube_001-mesh-vertices">
          <input semantic="POSITION" source="#Cube_001-mesh-positions"/>
        </vertices>
        <triangles material="cube-material" count="12">
          <input semantic="VERTEX" source="#Cube_001-mesh-vertices" offset="0"/>
          <input semantic="NORMAL" source="#Cube_001-mesh-normals" offset="1"/>
          <input semantic="TEXCOORD" source="#Cube_001-mesh-map-0" offset="2" set="0"/>
          <input semantic="TEXCOORD" source="#Cube_001-mesh-map-1" offset="2" set="1"/>
          <p>4 0 0 2 0 1 0 0 2 2 1 3 7 1 4 3 1 5 6 2 6 5 2 7 7 2 8 1 3 9 7 3 10 5 3 11 0 4 12 3 4 13 1 4 14 4 5 15 1 5 16 5 5 17 4 0 18 6 0 19 2 0 20 2 1 21 6 1 22 7 1 23 6 2 24 4 2 25 5 2 26 1 3 27 3 3 28 7 3 29 0 4 30 2 4 31 3 4 32 4 5 33 0 5 34 1 5 35</p>
        </triangles>
        <triangles material="Material_001-material" count="124">
          <input semantic="VERTEX" source="#Cube_001-mesh-vertices" offset="0"/>
          <input semantic="NORMAL" source="#Cube_001-mesh-normals" offset="1"/>
          <input semantic="TEXCOORD" source="#Cube_001-mesh-map-0" offset="2" set="0"/>
          <input semantic="TEXCOORD" source="#Cube_001-mesh-map-1" offset="2" set="1"/>
          <p>8 6 36 11 6 37 10 6 38 11 7 39 12 7 40 10 7 41 13 8 42 14 8 43 12 8 44 15 9 45 16 9 46 14 9 47 17 10 48 18 10 49 16 10 50 19 11 51 20 11 52 18 11 53 21 12 54 22 12 55 20 12 56 23 13 57 24 13 58 22 13 59 25 14 60 26 14 61 24 14 62 27 15 63 28 15 64 26 15 65 29 16 66 30 16 67 28 16 68 31 17 69 32 17 70 30 17 71 33 18 72 34 18 73 32 18 74 35 19 75 36 19 76 34 19 77 37 20 78 38 20 79 36 20 80 39 21 81 40 21 82 38 21 83 41 22 84 42 22 85 40 22 86 43 23 87 44 23 88 42 23 89 45 24 90 46 24 91 44 24 92 47 25 93 48 25 94 46 25 95 49 26 96 50 26 97 48 26 98 51 27 99 52 27 100 50 27 101 53 28 102 54 28 103 52 28 104 55 29 105 56 29 106 54 29 107 57 30 108 58 30 109 56 30 110 59 31 111 60 31 112 58 31 113 61 32 114 62 32 115 60 32 116 63 33 117 64 33 118 62 33 119 65 34 120 66 34 121 64 34 122 67 35 123 68 35 124 66 35 125 45 36 126 29 36 127 13 36 128 69 37 129 70 37 130 68 37 131 70 38 132 9 38 133 8 38 134 22 39 135 38 39 136 54 39 137 8 40 138 9 40 139 11 40 140 11 41 141 13 41 142 12 41 143 13 8 144 15 8 145 14 8 146 15 42 147 17 42 148 16 42 149 17 43 150 19 43 151 18 43 152 19 44 153 21 44 154 20 44 155 21 45 156 23 45 157 22 45 158 23 13 159 25 13 160 24 13 161 25 46 162 27 46 163 26 46 164 27 47 165 29 47 166 28 47 167 29 48 168 31 48 169 30 48 170 31 49 171 33 49 172 32 49 173 33 50 174 35 50 175 34 50 176 35 51 177 37 51 178 36 51 179 37 52 180 39 52 181 38 52 182 39 53 183 41 53 184 40 53 185 41 54 186 43 54 187 42 54 188 43 55 189 45 55 190 44 55 191 45 56 192 47 56 193 46 56 194 47 57 195 49 57 196 48 57 197 49 58 198 51 58 199 50 58 200 51 59 201 53 59 202 52 59 203 53 60 204 55 60 205 54 60 206 55 61 207 57 61 208 56 61 209 57 62 210 59 62 211 58 62 212 59 63 213 61 63 214 60 63 215 61 64 216 63 64 217 62 64 218 63 33 219 65 33 220 64 33 221 65 65 222 67 65 223 66 65 224 67 66 225 69 66 226 68 66 227 13 2 228 11 2 229 69 2 230 11 67 231 9 67 232 69 67 233 9 2 234 71 2 235 69 2 236 69 68 237 67 68 238 65 68 239 65 2 240 63 2 241 61 2 242 61 2 243 59 2 244 57 2 245 57 2 246 55 2 247 53 2 248 53 2 249 51 2 250 49 2 251 49 2 252 47 2 253 45 2 254 45 69 255 43 69 256 41 69 257 41 2 258 39 2 259 37 2 260 37 2 261 35 2 262 33 2 263 33 70 264 31 70 265 29 70 266 29 71 267 27 71 268 21 71 269 27 2 270 25 2 271 21 2 272 25 2 273 23 2 274 21 2 275 21 2 276 19 2 277 17 2 278 17 2 279 15 2 280 13 2 281 69 72 282 65 72 283 13 72 284 65 2 285 61 2 286 13 2 287 61 73 288 57 73 289 45 73 290 57 2 291 53 2 292 45 2 293 53 2 294 49 2 295 45 2 296 45 2 297 41 2 298 37 2 299 37 74 300 33 74 301 29 74 302 21 75 303 17 75 304 13 75 305 45 76 306 37 76 307 29 76 308 29 2 309 21 2 310 13 2 311 13 77 312 61 77 313 45 77 314 69 78 315 71 78 316 70 78 317 70 79 318 71 79 319 9 79 320 70 80 321 8 80 322 10 80 323 10 81 324 12 81 325 14 81 326 14 4 327 16 4 328 18 4 329 18 82 330 20 82 331 22 82 332 22 4 333 24 4 334 26 4 335 26 83 336 28 83 337 30 83 338 30 4 339 32 4 340 34 4 341 34 4 342 36 4 343 30 4 344 36 84 345 38 84 346 30 84 347 38 85 348 40 85 349 42 85 350 42 86 351 44 86 352 38 86 353 44 4 354 46 4 355 38 4 356 46 4 357 48 4 358 50 4 359 50 4 360 52 4 361 46 4 362 52 4 363 54 4 364 46 4 365 54 4 366 56 4 367 58 4 368 58 4 369 60 4 370 54 4 371 60 4 372 62 4 373 54 4 374 62 4 375 64 4 376 70 4 377 64 87 378 66 87 379 70 87 380 66 88 381 68 88 382 70 88 383 70 89 384 10 89 385 14 89 386 14 90 387 18 90 388 70 90 389 18 91 390 22 91 391 70 91 392 22 4 393 26 4 394 30 4 395 22 92 396 30 92 397 38 92 398 38 93 399 46 93 400 54 93 401 54 4 402 62 4 403 70 4 404 70 94 405 22 94 406 54 94 407</p>
        </triangles>
      </mesh>
    </geometry>
  </library_geometries>
  <library_visual_scenes>
    <visual_scene id="Scene" name="Scene">
      <node id="Cube" name="Cube" type="NODE">
        <matrix sid="transform">-8.74228e-10 0 0.02 0.02410992 0 0.02 0 0 -0.02 0 -8.74228e-10 0.02187575 0 0 0 1</matrix>
        <instance_geometry url="#Cube_001-mesh" name="Cube">
          <bind_material>
            <technique_common>
              <instance_material symbol="cube-material" target="#cube-material">
                <bind_vertex_input semantic="Cube-mesh-map-0" input_semantic="TEXCOORD" input_set="0"/>
                <bind_vertex_input semantic="UVMap" input_semantic="TEXCOORD" input_set="1"/>
              </instance_material>
              <instance_material symbol="Material_001-material" target="#Material_001-material">
                <bind_vertex_input semantic="Cube-mesh-map-0" input_semantic="TEXCOORD" input_set="0"/>
                <bind_vertex_input semantic="UVMap" input_semantic="TEXCOORD" input_set="1"/>
              </instance_material>
            </technique_common>
          </bind_material>
        </instance_geometry>
      </node>
    </visual_scene>
  </library_visual_scenes>
  <scene>
    <instance_visual_scene url="#Scene"/>
  </scene>
</COLLADA>