<?xml version="1.0" encoding="utf-8"?>
<COLLADA xmlns="http://www.collada.org/2005/11/COLLADASchema" version="1.4.1" xmlns:xsi="http://www.w3.org/2001/XMLSchema-instance">
  <asset>
    <contributor>
      <author>Blender User</author>
      <authoring_tool>Blender 3.0.1</authoring_tool>
    </contributor>
    <created>2024-06-05T16:28:05</created>
    <modified>2024-06-05T16:28:05</modified>
    <unit name="meter" meter="1"/>
    <up_axis>Z_UP</up_axis>
  </asset>
  <library_effects>
    <effect id="Material_001-effect">
      <profile_COMMON>
        <technique sid="common">
          <lambert>
            <emission>
              <color sid="emission">0 0 0 1</color>
            </emission>
            <diffuse>
              <color sid="diffuse">0.1733546 0.1578495 0.1538364 1</color>
            </diffuse>
            <index_of_refraction>
              <float sid="ior">1.45</float>
            </index_of_refraction>
          </lambert>
        </technique>
      </profile_COMMON>
    </effect>
  </library_effects>
  <library_images/>
  <library_materials>
    <material id="Material_001-material" name="Material.001">
      <instance_effect url="#Material_001-effect"/>
    </material>
  </library_materials>
  <library_geometries>
    <geometry id="planar_end_eff_visual-mesh" name="planar_end_eff_visual">
      <mesh>
        <source id="planar_end_eff_visual-mesh-positions">
          <float_array id="planar_end_eff_visual-mesh-positions-array" count="120">-0.1 -0.1 0.00999999 -0.1 -0.1 0.01600003 -0.1 0.1 0.01600003 -0.1 0.1 0.00999999 0.1 0.1 0.01600003 0.1 0.1 0.00999999 0.1 -0.1 0.01600003 0.1 -0.1 0.00999999 0 0.02999997 0 0 0.02999997 0.00999999 0.01148045 0.02771633 0.00999999 0.01148045 0.02771633 0 0.02121317 0.02121317 0.00999999 0.02121317 0.02121317 0 0.02771633 0.01148045 0.00999999 0.02771633 0.01148045 0 0.02999997 0 0.00999999 0.02999997 0 0 0.02771633 -0.01148051 0.00999999 0.02771633 -0.01148051 0 0.02121317 -0.02121317 0.00999999 0.02121317 -0.02121317 0 0.01148045 -0.02771633 0.00999999 0.01148045 -0.02771633 0 0 -0.02999997 0.00999999 0 -0.02999997 0 -0.01148045 -0.02771639 0.00999999 -0.01148045 -0.02771639 0 -0.02121317 -0.02121317 0.00999999 -0.02121317 -0.02121317 0 -0.02771633 -0.01148051 0.00999999 -0.02771633 -0.01148051 0 -0.02999997 0 0.00999999 -0.02999997 0 0 -0.02771633 0.01148045 0.00999999 -0.02771633 0.01148045 0 -0.02121317 0.02121317 0.00999999 -0.02121317 0.02121317 0 -0.01148045 0.02771633 0.00999999 -0.01148045 0.02771633 0</float_array>
          <technique_common>
            <accessor source="#planar_end_eff_visual-mesh-positions-array" count="40" stride="3">
              <param name="X" type="float"/>
              <param name="Y" type="float"/>
              <param name="Z" type="float"/>
            </accessor>
          </technique_common>
        </source>
        <source id="planar_end_eff_visual-mesh-normals">
          <float_array id="planar_end_eff_visual-mesh-normals-array" count="111">-1 0 0 0 1 0 1 0 0 0 -1 0 0 0 -1 0 0 1 0.1950906 0.9807853 0 0.5555701 0.8314698 0 0.5555703 0.8314697 0 0.8314695 0.5555705 0 0.8314698 0.5555702 0 0.9807853 0.1950904 0 0.9807854 -0.1950903 0 0.8314695 -0.5555704 0 0.8314694 -0.5555707 0 0.5555704 -0.8314695 0 0.1950904 -0.9807854 0 -0.1950901 -0.9807854 0 -0.5555701 -0.8314698 0 -0.55557 -0.8314698 0 -0.8314696 -0.5555704 0 -0.9807854 -0.1950903 0 -0.9807852 -0.1950908 0 -0.9807852 0.1950908 0 -0.9807854 0.1950903 0 -0.8314696 0.5555704 0 -1.38764e-7 0 1 2.77528e-7 0 1 2.77528e-7 0 1 0 0 1 -2.77528e-7 0 1 0 0 1 0 0 1 0 0 1 -0.5555698 0.83147 0 -0.5555697 0.83147 0 -0.1950902 0.9807854 0</float_array>
          <technique_common>
            <accessor source="#planar_end_eff_visual-mesh-normals-array" count="37" stride="3">
              <param name="X" type="float"/>
              <param name="Y" type="float"/>
              <param name="Z" type="float"/>
            </accessor>
          </technique_common>
        </source>
        <vertices id="planar_end_eff_visual-mesh-vertices">
          <input semantic="POSITION" source="#planar_end_eff_visual-mesh-positions"/>
        </vertices>
        <triangles material="Material_001-material" count="72">
          <input semantic="VERTEX" source="#planar_end_eff_visual-mesh-vertices" offset="0"/>
          <input semantic="NORMAL" source="#planar_end_eff_visual-mesh-normals" offset="1"/>
          <p>0 0 1 0 2 0 2 0 3 0 0 0 3 1 2 1 4 1 4 1 5 1 3 1 5 2 4 2 6 2 6 2 7 2 5 2 1 3 0 3 7 3 7 3 6 3 1 3 7 4 0 4 3 4 3 4 5 4 7 4 4 5 2 5 1 5 1 5 6 5 4 5 8 6 9 6 10 6 10 6 11 6 8 6 11 7 10 7 12 7 12 8 13 8 11 8 13 9 12 9 14 9 14 10 15 10 13 10 15 11 14 11 16 11 16 11 17 11 15 11 17 12 16 12 18 12 18 12 19 12 17 12 19 13 18 13 20 13 20 14 21 14 19 14 21 15 20 15 22 15 22 15 23 15 21 15 23 16 22 16 24 16 24 16 25 16 23 16 25 17 24 17 26 17 26 17 27 17 25 17 27 18 26 18 28 18 28 19 29 19 27 19 29 20 28 20 30 20 30 20 31 20 29 20 31 21 30 21 32 21 32 22 33 22 31 22 33 23 32 23 34 23 34 24 35 24 33 24 35 25 34 25 36 25 36 25 37 25 35 25 12 26 10 26 9 26 9 5 38 5 36 5 36 27 34 27 32 27 32 28 30 28 28 28 28 29 26 29 24 29 24 5 22 5 20 5 20 5 18 5 16 5 16 30 14 30 12 30 12 5 9 5 36 5 36 31 32 31 28 31 28 5 24 5 20 5 20 32 16 32 12 32 12 33 36 33 28 33 28 5 20 5 12 5 37 34 36 34 38 34 38 35 39 35 37 35 39 36 38 36 9 36 9 36 8 36 39 36 39 4 8 4 11 4 11 4 13 4 15 4 15 4 17 4 19 4 19 4 21 4 23 4 23 4 25 4 27 4 27 4 29 4 31 4 31 4 33 4 35 4 35 4 37 4 39 4 39 4 11 4 15 4 15 4 19 4 23 4 23 4 27 4 31 4 31 4 35 4 39 4 39 4 15 4 23 4 23 4 31 4 39 4</p>
        </triangles>
      </mesh>
    </geometry>
  </library_geometries>
  <library_visual_scenes>
    <visual_scene id="Scene" name="Scene">
      <node id="planar_end_eff_visual" name="planar_end_eff_visual" type="NODE">
        <matrix sid="transform">1 0 0 0 0 1 0 0 0 0 1 0 0 0 0 1</matrix>
        <instance_geometry url="#planar_end_eff_visual-mesh" name="planar_end_eff_visual">
          <bind_material>
            <technique_common>
              <instance_material symbol="Material_001-material" target="#Material_001-material"/>
            </technique_common>
          </bind_material>
        </instance_geometry>
      </node>
    </visual_scene>
  </library_visual_scenes>
  <scene>
    <instance_visual_scene url="#Scene"/>
  </scene>
</COLLADA>